<svg width="20" height="16" viewBox="0 0 20 16" fill="none" xmlns="http://www.w3.org/2000/svg">
<path d="M0.909091 14H2.31818V9.45455H4.86364C4.96591 9.45455 5.0625 9.45455 5.15909 9.44886L7.61364 14H9.25L6.61932 9.19318C8.10227 8.6875 8.79545 7.47727 8.79545 5.93182C8.79545 3.875 7.56818 2.36364 4.84091 2.36364H0.909091V14ZM2.31818 8.18182V3.61364H4.79545C6.68182 3.61364 7.40909 4.53409 7.40909 5.93182C7.40909 7.32955 6.68182 8.18182 4.81818 8.18182H2.31818ZM14.3707 15.4545H15.3026V14.1875C17.6889 14.0227 19.0298 12.6136 19.0298 10.8409C19.0298 8.65909 16.9616 7.95455 15.7571 7.63636L15.3026 7.51136V3.47159C16.5071 3.59091 17.3821 4.23864 17.5071 5.27273H18.8707C18.8139 3.61364 17.3594 2.35227 15.3026 2.21591V0.90909H14.3707V2.23295C12.4219 2.43182 10.9616 3.67045 10.9616 5.45455C10.9616 7.02273 12.098 7.95455 13.9162 8.47727L14.3707 8.60795V12.9091C13.1776 12.7841 12.2003 12.1705 12.098 11H10.6435C10.7741 12.7898 12.1378 14.0398 14.3707 14.1875V15.4545ZM15.3026 12.9091V8.875L15.348 8.88636C16.5753 9.22727 17.6662 9.65909 17.6662 10.8182C17.6662 11.9602 16.6776 12.7557 15.3026 12.9091ZM14.3707 7.26136C13.5071 7.01705 12.3253 6.53977 12.3253 5.38636C12.3253 4.40341 13.1207 3.65341 14.3707 3.48864V7.26136Z" fill="#868E96"/>
</svg>
